<svg xmlns="http://www.w3.org/2000/svg" version="1.1" xmlns:xlink="http://www.w3.org/1999/xlink" xmlns:svgjs="http://svgjs.dev/svgjs" width="1000" height="1000" viewBox="0 0 1000 1000"><rect width="1000" height="1000" fill="#636365"></rect><g transform="matrix(0.7,0,0,0.7,149.57575757575756,282.1265587044535)"><svg viewBox="0 0 396 247" data-background-color="#636365" preserveAspectRatio="xMidYMid meet" height="623" width="1000" xmlns="http://www.w3.org/2000/svg" xmlns:xlink="http://www.w3.org/1999/xlink"><g id="tight-bounds" transform="matrix(1,0,0,1,0.2400000000000091,-0.09999999999999432)"><svg viewBox="0 0 395.52 247.2" height="247.2" width="395.52"><g><svg></svg></g><g><svg viewBox="0 0 395.52 247.2" height="247.2" width="395.52"><g transform="matrix(1,0,0,1,39.55199999999999,93.06093462199262)"><svg viewBox="0 0 316.416 61.07813075601476" height="61.07813075601476" width="316.416"><g><svg viewBox="0 0 316.416 61.07813075601476" height="61.07813075601476" width="316.416"><g><svg viewBox="0 0 316.416 61.07813075601476" height="61.07813075601476" width="316.416"><g><svg viewBox="0 0 316.416 61.07813075601476" height="61.07813075601476" width="316.416"><g><svg viewBox="0 0 316.416 61.07813075601476" height="61.07813075601476" width="316.416"><g><svg viewBox="0 0 316.416 32.94262519768055" height="32.94262519768055" width="316.416"><g transform="matrix(1,0,0,1,0,0)"><svg width="316.416" viewBox="2.35 -39 379.38 39.5" height="32.94262519768055" data-palette-color="#d2d6dc"><path d="M34.4-35.4L35.35-38.5 37.8-38.5 36.8-25.85 34.8-25.85Q33.75-30.45 30.73-33.1 27.7-35.75 23.4-35.75L23.4-35.75Q20.45-35.75 18.15-34.58 15.85-33.4 14.28-31.23 12.7-29.05 11.88-25.93 11.05-22.8 11.05-18.9L11.05-18.9Q11.05-11.15 14.23-6.98 17.4-2.8 23.6-2.8L23.6-2.8Q28.6-2.8 31.88-5.5 35.15-8.2 36.55-13.55L36.55-13.55 38.75-13.55 38.75 0 36.4 0 35.7-3.95Q30.2 0.5 22.35 0.5L22.35 0.5Q17.8 0.5 14.1-0.85 10.4-2.2 7.8-4.67 5.2-7.15 3.78-10.7 2.35-14.25 2.35-18.6L2.35-18.6Q2.35-23.15 3.85-26.9 5.35-30.65 8.08-33.35 10.8-36.05 14.58-37.52 18.35-39 22.95-39L22.95-39Q26-39 28.65-38.15 31.3-37.3 34.4-35.4L34.4-35.4ZM67.35-8.65L66.2-11.65 52.05-11.65Q49.7-6.35 49.7-4.3L49.7-4.3Q49.7-2.8 50.82-2.4 51.95-2 54.2-2L54.2-2 54.2 0 40.5 0 40.5-2Q41.7-2.15 42.57-2.4 43.45-2.65 44.12-3.1 44.8-3.55 45.3-4.28 45.8-5 46.25-6.05L46.25-6.05 59.4-39 63.1-39 75.05-9.8Q76.1-7.25 76.82-5.8 77.55-4.35 78.37-3.58 79.2-2.8 80.27-2.5 81.35-2.2 83.05-2.05L83.05-2.05 83.05 0 64.15 0 64.15-2.05Q66.55-2.15 67.6-2.55 68.65-2.95 68.65-4.15L68.65-4.15Q68.65-4.85 68.3-5.95 67.95-7.05 67.35-8.65L67.35-8.65ZM59.15-29.8L53.2-14.65 65.1-14.65 59.35-29.8 59.15-29.8ZM118.1-38.5L118.6-27.5 116.45-27.5Q116.3-29.95 115.72-31.58 115.15-33.2 114.1-34.18 113.05-35.15 111.55-35.52 110.05-35.9 108.05-35.9L108.05-35.9Q106.1-35.9 104.92-35.83 103.75-35.75 103.12-35.58 102.5-35.4 102.3-35.1 102.1-34.8 102.1-34.35L102.1-34.35 102.1-8.15Q102.1-6.55 102.32-5.4 102.55-4.25 103.25-3.53 103.95-2.8 105.3-2.43 106.65-2.05 108.85-2L108.85-2 108.85 0 87.9 0 87.9-2Q90.15-2.05 91.5-2.43 92.85-2.8 93.57-3.53 94.3-4.25 94.52-5.4 94.75-6.55 94.75-8.15L94.75-8.15 94.75-34.35Q94.75-34.8 94.57-35.1 94.4-35.4 93.85-35.58 93.3-35.75 92.27-35.83 91.25-35.9 89.6-35.9L89.6-35.9Q87.8-35.9 86.15-35.73 84.5-35.55 83.25-34.73 82-33.9 81.22-32.23 80.45-30.55 80.4-27.5L80.4-27.5 78.45-27.5 78.95-38.5 118.1-38.5ZM141.59-8.65L140.44-11.65 126.29-11.65Q123.94-6.35 123.94-4.3L123.94-4.3Q123.94-2.8 125.07-2.4 126.19-2 128.44-2L128.44-2 128.44 0 114.74 0 114.74-2Q115.94-2.15 116.82-2.4 117.69-2.65 118.37-3.1 119.04-3.55 119.54-4.28 120.04-5 120.49-6.05L120.49-6.05 133.64-39 137.34-39 149.29-9.8Q150.34-7.25 151.07-5.8 151.79-4.35 152.62-3.58 153.44-2.8 154.52-2.5 155.59-2.2 157.29-2.05L157.29-2.05 157.29 0 138.39 0 138.39-2.05Q140.79-2.15 141.84-2.55 142.89-2.95 142.89-4.15L142.89-4.15Q142.89-4.85 142.54-5.95 142.19-7.05 141.59-8.65L141.59-8.65ZM133.39-29.8L127.44-14.65 139.34-14.65 133.59-29.8 133.39-29.8ZM192.84-11.35L192.04 0 157.59 0 157.59-2Q159.24-2.05 160.29-2.3 161.34-2.55 161.89-3.15 162.44-3.75 162.64-4.85 162.84-5.95 162.84-7.7L162.84-7.7 162.84-30.8Q162.84-32.55 162.67-33.63 162.49-34.7 161.99-35.33 161.49-35.95 160.57-36.18 159.64-36.4 158.14-36.5L158.14-36.5 158.14-38.5 175.39-38.5 175.39-36.5Q173.69-36.45 172.67-36.2 171.64-35.95 171.09-35.3 170.54-34.65 170.37-33.5 170.19-32.35 170.19-30.45L170.19-30.45 170.19-9.5Q170.19-7.4 170.62-6.08 171.04-4.75 172.09-4.03 173.14-3.3 174.89-3.03 176.64-2.75 179.24-2.75L179.24-2.75Q182.14-2.75 184.09-3.1 186.04-3.45 187.37-4.42 188.69-5.4 189.49-7.05 190.29-8.7 190.84-11.35L190.84-11.35 192.84-11.35ZM204.69-13.8L194.34-32.2Q193.59-33.5 192.96-34.35 192.34-35.2 191.69-35.68 191.04-36.15 190.29-36.33 189.54-36.5 188.59-36.5L188.59-36.5 188.59-38.5 205.39-38.5 205.39-36.5Q203.29-36.5 202.44-36.1 201.59-35.7 201.59-34.9L201.59-34.9Q201.59-34.4 201.89-33.7 202.19-33 202.84-31.8L202.84-31.8 209.99-18.15 210.19-18.15 216.49-28.65Q218.14-31.45 218.79-32.83 219.44-34.2 219.44-35L219.44-35Q219.44-35.85 218.66-36.18 217.89-36.5 215.79-36.5L215.79-36.5 215.79-38.5 228.34-38.5 228.34-36.5Q227.24-36.5 226.34-36.15 225.44-35.8 224.46-34.77 223.49-33.75 222.26-31.93 221.04-30.1 219.34-27.15L219.34-27.15 212.04-14.65 212.04-9.55Q212.04-7.05 212.26-5.55 212.49-4.05 213.06-3.28 213.64-2.5 214.64-2.25 215.64-2 217.24-2L217.24-2 217.24 0 199.44 0 199.44-2Q200.99-2 202.01-2.25 203.04-2.5 203.64-3.25 204.24-4 204.46-5.43 204.69-6.85 204.69-9.2L204.69-9.2 204.69-13.8ZM230.29 0L229.54-12.75 231.49-12.75Q232.19-8 235.29-5.28 238.39-2.55 242.94-2.55L242.94-2.55Q244.79-2.55 246.34-3 247.89-3.45 248.99-4.28 250.09-5.1 250.69-6.23 251.29-7.35 251.29-8.75L251.29-8.75Q251.29-9.95 250.91-10.83 250.54-11.7 249.49-12.53 248.44-13.35 246.61-14.2 244.79-15.05 241.89-16.15L241.89-16.15Q236.04-18.4 233.24-21.38 230.44-24.35 230.44-28.4L230.44-28.4Q230.44-30.75 231.34-32.7 232.24-34.65 233.86-36.05 235.49-37.45 237.76-38.23 240.04-39 242.79-39L242.79-39Q245.34-39 247.59-38.2 249.84-37.4 252.04-35.8L252.04-35.8 252.94-38.3 254.14-38.3 254.69-27.5 252.74-27.5Q251.54-31.6 248.99-33.77 246.44-35.95 243.09-35.95L243.09-35.95Q239.99-35.95 238.06-34.43 236.14-32.9 236.14-30.5L236.14-30.5Q236.14-29.45 236.49-28.63 236.84-27.8 237.79-27.05 238.74-26.3 240.39-25.53 242.04-24.75 244.64-23.8L244.64-23.8Q248.14-22.45 250.61-21.08 253.09-19.7 254.66-18.13 256.24-16.55 256.99-14.8 257.74-13.05 257.74-10.95L257.74-10.95Q257.74-8.4 256.64-6.3 255.54-4.2 253.56-2.7 251.59-1.2 248.86-0.35 246.14 0.5 242.84 0.5L242.84 0.5Q239.84 0.5 237.44-0.33 235.04-1.15 232.49-3L232.49-3 231.49 0 230.29 0ZM283.58-39L283.58-39Q288.08-39 291.98-37.45 295.88-35.9 298.76-33.2 301.63-30.5 303.28-26.85 304.93-23.2 304.93-18.95L304.93-18.95Q304.93-14.9 303.26-11.35 301.58-7.8 298.71-5.18 295.83-2.55 291.93-1.03 288.03 0.5 283.58 0.5L283.58 0.5Q279.13 0.5 275.23-1.03 271.33-2.55 268.43-5.18 265.53-7.8 263.88-11.35 262.23-14.9 262.23-18.95L262.23-18.95Q262.23-23.2 263.88-26.85 265.53-30.5 268.41-33.2 271.28-35.9 275.18-37.45 279.08-39 283.58-39ZM283.58-2.75L283.58-2.75Q286.48-2.75 288.83-3.88 291.18-5 292.83-7.08 294.48-9.15 295.36-12.13 296.23-15.1 296.23-18.8L296.23-18.8Q296.23-22.7 295.36-25.83 294.48-28.95 292.83-31.18 291.18-33.4 288.83-34.58 286.48-35.75 283.58-35.75L283.58-35.75Q280.63-35.75 278.31-34.58 275.98-33.4 274.33-31.18 272.68-28.95 271.81-25.83 270.93-22.7 270.93-18.8L270.93-18.8Q270.93-15.1 271.81-12.13 272.68-9.15 274.33-7.08 275.98-5 278.31-3.88 280.63-2.75 283.58-2.75ZM320.88-17.75L320.88-8.05Q320.88-6.15 321.13-4.98 321.38-3.8 322.16-3.18 322.93-2.55 324.36-2.3 325.78-2.05 328.18-2L328.18-2 328.18 0 308.28 0 308.28-2Q309.93-2.05 310.98-2.3 312.03-2.55 312.58-3.15 313.13-3.75 313.33-4.85 313.53-5.95 313.53-7.7L313.53-7.7 313.53-30.8Q313.53-32.55 313.36-33.63 313.18-34.7 312.68-35.33 312.18-35.95 311.26-36.18 310.33-36.4 308.83-36.5L308.83-36.5 308.83-38.5 339.43-38.5 340.03-27.95 337.93-27.95Q337.63-30.1 337.06-31.58 336.48-33.05 335.43-33.98 334.38-34.9 332.73-35.3 331.08-35.7 328.68-35.7L328.68-35.7 321.78-35.7Q320.88-35.7 320.88-34.85L320.88-34.85 320.88-20.4Q323.93-20.4 325.86-20.65 327.78-20.9 328.93-21.63 330.08-22.35 330.58-23.6 331.08-24.85 331.28-26.9L331.28-26.9 333.13-26.9 333.13-11.25 331.28-11.25Q330.98-13.35 330.43-14.63 329.88-15.9 328.76-16.57 327.63-17.25 325.73-17.5 323.83-17.75 320.88-17.75L320.88-17.75ZM381.23-38.5L381.73-27.5 379.58-27.5Q379.43-29.95 378.85-31.58 378.28-33.2 377.23-34.18 376.18-35.15 374.68-35.52 373.18-35.9 371.18-35.9L371.18-35.9Q369.23-35.9 368.05-35.83 366.88-35.75 366.25-35.58 365.63-35.4 365.43-35.1 365.23-34.8 365.23-34.35L365.23-34.35 365.23-8.15Q365.23-6.55 365.45-5.4 365.68-4.25 366.38-3.53 367.08-2.8 368.43-2.43 369.78-2.05 371.98-2L371.98-2 371.98 0 351.03 0 351.03-2Q353.28-2.05 354.63-2.43 355.98-2.8 356.7-3.53 357.43-4.25 357.65-5.4 357.88-6.55 357.88-8.15L357.88-8.15 357.88-34.35Q357.88-34.8 357.7-35.1 357.53-35.4 356.98-35.58 356.43-35.75 355.4-35.83 354.38-35.9 352.73-35.9L352.73-35.9Q350.93-35.9 349.28-35.73 347.63-35.55 346.38-34.73 345.13-33.9 344.35-32.23 343.58-30.55 343.53-27.5L343.53-27.5 341.58-27.5 342.08-38.5 381.23-38.5Z" opacity="1" transform="matrix(1,0,0,1,0,0)" fill="#d2d6dc" class="undefined-text-0" data-fill-palette-color="primary" id="text-0"></path></svg></g></svg></g><g transform="matrix(1,0,0,1,0,40.71958838384818)"><svg viewBox="0 0 316.416 20.35854237216658" height="20.35854237216658" width="316.416"><g transform="matrix(1,0,0,1,0,0)"><svg width="316.416" viewBox="3.25 -35.5 559.52 36" height="20.35854237216658" data-palette-color="#97978d"><path d="M16.55 0.5L16.55 0.5Q12 0.5 9.13-1.28 6.25-3.05 4.85-6.1 3.45-9.15 3.3-13.05L3.3-13.05Q3.25-15.1 3.25-17.45 3.25-19.8 3.3-21.95L3.3-21.95Q3.45-25.85 4.85-28.93 6.25-32 9.13-33.75 12-35.5 16.55-35.5L16.55-35.5Q20.1-35.5 22.6-34.5 25.1-33.5 26.68-31.88 28.25-30.25 29.03-28.38 29.8-26.5 29.9-24.7L29.9-24.7Q29.95-24.25 29.63-23.98 29.3-23.7 28.85-23.7L28.85-23.7 27.85-23.7Q27.45-23.7 27.15-23.93 26.85-24.15 26.75-24.75L26.75-24.75Q25.8-29.2 23.18-30.85 20.55-32.5 16.55-32.5L16.55-32.5Q12-32.5 9.33-29.93 6.65-27.35 6.45-21.7L6.45-21.7Q6.3-17.6 6.45-13.3L6.45-13.3Q6.65-7.65 9.33-5.08 12-2.5 16.55-2.5L16.55-2.5Q20.55-2.5 23.18-4.15 25.8-5.8 26.75-10.25L26.75-10.25Q26.85-10.85 27.15-11.08 27.45-11.3 27.85-11.3L27.85-11.3 28.85-11.3Q29.3-11.3 29.63-11.03 29.95-10.75 29.9-10.3L29.9-10.3Q29.8-8.5 29.03-6.63 28.25-4.75 26.68-3.13 25.1-1.5 22.6-0.5 20.1 0.5 16.55 0.5ZM67.35 0.5L67.35 0.5Q63.2 0.5 60.3-0.98 57.4-2.45 55.85-5.53 54.3-8.6 54.15-13.3L54.15-13.3Q54.1-15.55 54.1-17.5 54.1-19.45 54.15-21.7L54.15-21.7Q54.3-26.35 55.95-29.43 57.6-32.5 60.52-34 63.45-35.5 67.35-35.5L67.35-35.5Q71.25-35.5 74.17-34 77.1-32.5 78.77-29.43 80.45-26.35 80.55-21.7L80.55-21.7Q80.65-19.45 80.65-17.5 80.65-15.55 80.55-13.3L80.55-13.3Q80.45-8.6 78.87-5.53 77.3-2.45 74.4-0.98 71.5 0.5 67.35 0.5ZM67.35-2.5L67.35-2.5Q71.65-2.5 74.42-5.1 77.2-7.7 77.4-13.55L77.4-13.55Q77.5-15.8 77.5-17.5 77.5-19.2 77.4-21.45L77.4-21.45Q77.3-25.35 75.97-27.8 74.65-30.25 72.42-31.38 70.2-32.5 67.35-32.5L67.35-32.5Q64.55-32.5 62.32-31.38 60.1-30.25 58.77-27.8 57.45-25.35 57.3-21.45L57.3-21.45Q57.25-19.2 57.25-17.5 57.25-15.8 57.3-13.55L57.3-13.55Q57.5-7.7 60.3-5.1 63.1-2.5 67.35-2.5ZM118.84 0L107.94 0Q107.44 0 107.14-0.3 106.84-0.6 106.84-1.1L106.84-1.1 106.84-33.85Q106.84-34.4 107.14-34.7 107.44-35 107.94-35L107.94-35 118.59-35Q123.89-35 126.89-33.45 129.89-31.9 131.17-28.88 132.44-25.85 132.49-21.5L132.49-21.5Q132.54-19.25 132.54-17.53 132.54-15.8 132.49-13.55L132.49-13.55Q132.39-8.95 131.14-5.95 129.89-2.95 126.94-1.48 123.99 0 118.84 0L118.84 0ZM109.99-32L109.99-3 118.59-3Q122.59-3 124.92-4.08 127.24-5.15 128.27-7.53 129.29-9.9 129.34-13.8L129.34-13.8Q129.39-15.3 129.39-16.43 129.39-17.55 129.39-18.65 129.39-19.75 129.34-21.25L129.34-21.25Q129.24-26.75 126.79-29.38 124.34-32 118.34-32L118.34-32 109.99-32ZM179.94 0L160.04 0Q159.54 0 159.24-0.3 158.94-0.6 158.94-1.1L158.94-1.1 158.94-33.85Q158.94-34.4 159.24-34.7 159.54-35 160.04-35L160.04-35 179.54-35Q180.09-35 180.39-34.7 180.69-34.4 180.69-33.85L180.69-33.85 180.69-33.1Q180.69-32.6 180.39-32.3 180.09-32 179.54-32L179.54-32 162.09-32 162.09-19.25 178.44-19.25Q178.99-19.25 179.29-18.95 179.59-18.65 179.59-18.1L179.59-18.1 179.59-17.35Q179.59-16.85 179.29-16.55 178.99-16.25 178.44-16.25L178.44-16.25 162.09-16.25 162.09-3 179.94-3Q180.49-3 180.79-2.7 181.09-2.4 181.09-1.85L181.09-1.85 181.09-1.1Q181.09-0.6 180.79-0.3 180.49 0 179.94 0L179.94 0ZM239.94 0L239.04 0Q238.54 0 238.24-0.3 237.94-0.6 237.94-1.1L237.94-1.1 237.94-33.85Q237.94-34.4 238.24-34.7 238.54-35 239.04-35L239.04-35 258.34-35Q258.89-35 259.19-34.7 259.49-34.4 259.49-33.85L259.49-33.85 259.49-33.1Q259.49-32.6 259.19-32.3 258.89-32 258.34-32L258.34-32 241.09-32 241.09-18.55 257.34-18.55Q257.89-18.55 258.19-18.25 258.49-17.95 258.49-17.4L258.49-17.4 258.49-16.65Q258.49-16.15 258.19-15.85 257.89-15.55 257.34-15.55L257.34-15.55 241.09-15.55 241.09-1.1Q241.09-0.6 240.79-0.3 240.49 0 239.94 0L239.94 0ZM296.53 0.5L296.53 0.5Q292.38 0.5 289.48-0.98 286.58-2.45 285.03-5.53 283.48-8.6 283.33-13.3L283.33-13.3Q283.28-15.55 283.28-17.5 283.28-19.45 283.33-21.7L283.33-21.7Q283.48-26.35 285.13-29.43 286.78-32.5 289.71-34 292.63-35.5 296.53-35.5L296.53-35.5Q300.43-35.5 303.36-34 306.28-32.5 307.96-29.43 309.63-26.35 309.73-21.7L309.73-21.7Q309.83-19.45 309.83-17.5 309.83-15.55 309.73-13.3L309.73-13.3Q309.63-8.6 308.06-5.53 306.48-2.45 303.58-0.98 300.68 0.5 296.53 0.5ZM296.53-2.5L296.53-2.5Q300.83-2.5 303.61-5.1 306.38-7.7 306.58-13.55L306.58-13.55Q306.68-15.8 306.68-17.5 306.68-19.2 306.58-21.45L306.58-21.45Q306.48-25.35 305.16-27.8 303.83-30.25 301.61-31.38 299.38-32.5 296.53-32.5L296.53-32.5Q293.73-32.5 291.51-31.38 289.28-30.25 287.96-27.8 286.63-25.35 286.48-21.45L286.48-21.45Q286.43-19.2 286.43-17.5 286.43-15.8 286.48-13.55L286.48-13.55Q286.68-7.7 289.48-5.1 292.28-2.5 296.53-2.5ZM338.03 0L337.13 0Q336.63 0 336.33-0.3 336.03-0.6 336.03-1.1L336.03-1.1 336.03-33.85Q336.03-34.4 336.33-34.7 336.63-35 337.13-35L337.13-35 348.78-35Q354.03-35 357.16-32.5 360.28-30 360.28-24.9L360.28-24.9Q360.28-20.9 358.28-18.5 356.28-16.1 352.73-15.25L352.73-15.25 360.78-1.55Q360.93-1.25 360.93-1L360.93-1Q360.93-0.6 360.63-0.3 360.33 0 359.93 0L359.93 0 359.33 0Q358.53 0 358.13-0.43 357.73-0.85 357.43-1.35L357.43-1.35 349.48-14.8 339.18-14.8 339.18-1.1Q339.18-0.6 338.88-0.3 338.58 0 338.03 0L338.03 0ZM339.18-32L339.18-17.8 348.53-17.8Q352.88-17.8 355.01-19.58 357.13-21.35 357.13-24.9L357.13-24.9Q357.13-28.45 355.01-30.23 352.88-32 348.53-32L348.53-32 339.18-32ZM437.83 0L418.53 0Q418.03 0 417.73-0.3 417.43-0.6 417.43-1.1L417.43-1.1 417.43-33.9Q417.43-34.4 417.73-34.7 418.03-35 418.53-35L418.53-35 419.48-35Q419.98-35 420.28-34.7 420.58-34.4 420.58-33.9L420.58-33.9 420.58-3 437.83-3Q438.38-3 438.68-2.7 438.98-2.4 438.98-1.85L438.98-1.85 438.98-1.1Q438.98-0.6 438.68-0.3 438.38 0 437.83 0L437.83 0ZM465.12 0L464.17 0Q463.67 0 463.37-0.3 463.07-0.6 463.07-1.1L463.07-1.1 463.07-33.9Q463.07-34.4 463.37-34.7 463.67-35 464.17-35L464.17-35 465.12-35Q465.62-35 465.92-34.7 466.22-34.4 466.22-33.9L466.22-33.9 466.22-1.1Q466.22-0.6 465.92-0.3 465.62 0 465.12 0L465.12 0ZM495.87 0L494.97 0Q494.47 0 494.17-0.3 493.87-0.6 493.87-1.1L493.87-1.1 493.87-33.85Q493.87-34.4 494.17-34.7 494.47-35 494.97-35L494.97-35 514.27-35Q514.82-35 515.12-34.7 515.42-34.4 515.42-33.85L515.42-33.85 515.42-33.1Q515.42-32.6 515.12-32.3 514.82-32 514.27-32L514.27-32 497.02-32 497.02-18.55 513.27-18.55Q513.82-18.55 514.12-18.25 514.42-17.95 514.42-17.4L514.42-17.4 514.42-16.65Q514.42-16.15 514.12-15.85 513.82-15.55 513.27-15.55L513.27-15.55 497.02-15.55 497.02-1.1Q497.02-0.6 496.72-0.3 496.42 0 495.87 0L495.87 0ZM561.62 0L541.72 0Q541.22 0 540.92-0.3 540.62-0.6 540.62-1.1L540.62-1.1 540.62-33.85Q540.62-34.4 540.92-34.7 541.22-35 541.72-35L541.72-35 561.22-35Q561.77-35 562.07-34.7 562.37-34.4 562.37-33.85L562.37-33.85 562.37-33.1Q562.37-32.6 562.07-32.3 561.77-32 561.22-32L561.22-32 543.77-32 543.77-19.25 560.12-19.25Q560.67-19.25 560.97-18.95 561.27-18.65 561.27-18.1L561.27-18.1 561.27-17.35Q561.27-16.85 560.97-16.55 560.67-16.25 560.12-16.25L560.12-16.25 543.77-16.25 543.77-3 561.62-3Q562.17-3 562.47-2.7 562.77-2.4 562.77-1.85L562.77-1.85 562.77-1.1Q562.77-0.6 562.47-0.3 562.17 0 561.62 0L561.62 0Z" opacity="1" transform="matrix(1,0,0,1,0,0)" fill="#97978d" class="undefined-text-1" data-fill-palette-color="secondary" id="text-1"></path></svg></g></svg></g></svg></g></svg></g></svg></g></svg></g></svg></g><g mask="url(#7f5592e2-1926-46d5-a107-1a7e129c5b72)"><g transform="matrix(5.284482758620689, 0, 0, 5.284482758620689, 73.57465517241381, 1)"><svg xmlns="http://www.w3.org/2000/svg" xmlns:xlink="http://www.w3.org/1999/xlink" version="1.1" x="0" y="0" viewBox="0.5 0.8000000000000007 47 46.400000000000006" enable-background="new 0 0 48 48" xml:space="preserve" height="46.400000000000006" width="47" class="icon-none" data-fill-palette-color="accent" id="none"><g fill="#97978d" data-fill-palette-color="accent"><g fill="#97978d" data-fill-palette-color="accent"><path fill="#97978d" d="M16.8 10.3H24v2.1h-7.8c-0.8 3-1.3 6.6-1.3 10.5H24V1.5C21.3 1.5 18.6 4.8 16.8 10.3z" data-fill-palette-color="accent"></path><path fill="#97978d" d="M14.9 25c0.1 4 0.6 7.5 1.3 10.5H24V25H14.9z" data-fill-palette-color="accent"></path><path fill="#97978d" d="M16.8 37.7c1.8 5.5 4.5 8.8 7.2 8.8v-8.8H16.8z" data-fill-palette-color="accent"></path><path fill="#97978d" d="M14.6 37.7H4.9c3.6 5 9 8.5 15.4 9.5C17.9 45.5 15.9 42.1 14.6 37.7z" data-fill-palette-color="accent"></path><path fill="#97978d" d="M4.1 35.6H14c-0.8-3.1-1.2-6.7-1.3-10.5H0.6V23h12.2c0.1-3.8 0.5-7.4 1.3-10.5H4.1v-1C1.8 15.1 0.5 19.4 0.5 24c0 4.6 1.3 8.9 3.6 12.5V35.6z" data-fill-palette-color="accent"></path><path fill="#97978d" d="M14.6 10.3c1.3-4.4 3.3-7.8 5.7-9.5-6.3 1-11.8 4.5-15.4 9.5H14.6z" data-fill-palette-color="accent"></path></g><path fill="#97978d" d="M24.6 3.3h2.9v7.9h-1.3V4.5h-1.6V3.3z" data-fill-palette-color="accent"></path><path fill="#97978d" d="M30.1 10.3c-0.5-0.7-0.8-1.7-0.8-3 0-1.3 0.3-2.2 0.8-3 0.5-0.7 1.3-1.1 2.4-1.1 1.1 0 1.9 0.4 2.4 1.1 0.5 0.7 0.8 1.7 0.8 3 0 1.3-0.3 2.3-0.8 3-0.5 0.7-1.3 1.1-2.4 1.1C31.5 11.4 30.7 11 30.1 10.3zM31.1 5.1c-0.3 0.5-0.5 1.3-0.5 2.1 0 0.9 0.2 1.6 0.5 2.1 0.3 0.5 0.8 0.8 1.5 0.8 0.7 0 1.2-0.3 1.5-0.8 0.3-0.5 0.5-1.3 0.5-2.2 0-0.9-0.2-1.6-0.5-2.2-0.3-0.5-0.8-0.8-1.5-0.8C31.9 4.3 31.4 4.6 31.1 5.1z" data-fill-palette-color="accent"></path><path fill="#97978d" d="M37.9 10.3c-0.5-0.7-0.8-1.7-0.8-3 0-1.3 0.3-2.2 0.8-3 0.5-0.7 1.3-1.1 2.4-1.1 1.1 0 1.9 0.4 2.4 1.1 0.5 0.7 0.8 1.7 0.8 3 0 1.3-0.3 2.3-0.8 3-0.5 0.7-1.3 1.1-2.4 1.1C39.3 11.4 38.5 11 37.9 10.3zM38.9 5.1c-0.3 0.5-0.5 1.3-0.5 2.1 0 0.9 0.2 1.6 0.5 2.1 0.3 0.5 0.8 0.8 1.5 0.8 0.7 0 1.2-0.3 1.5-0.8 0.3-0.5 0.5-1.3 0.5-2.2 0-0.9-0.2-1.6-0.5-2.2-0.3-0.5-0.8-0.8-1.5-0.8C39.7 4.3 39.2 4.6 38.9 5.1z" data-fill-palette-color="accent"></path><path fill="#97978d" d="M44.6 3.3h2.9v7.9h-1.3V4.5h-1.6V3.3z" data-fill-palette-color="accent"></path><path fill="#97978d" d="M28.2 27.2c-0.5-0.7-0.7-1.7-0.7-3 0-1.3 0.2-2.2 0.7-3 0.5-0.7 1.2-1.1 2.2-1.1 1 0 1.7 0.4 2.2 1.1 0.5 0.7 0.7 1.7 0.7 3 0 1.3-0.2 2.3-0.7 3-0.5 0.7-1.2 1.1-2.2 1.1C29.4 28.3 28.7 27.9 28.2 27.2zM29.1 22c-0.3 0.5-0.4 1.3-0.4 2.1 0 0.9 0.1 1.6 0.4 2.1 0.3 0.5 0.7 0.8 1.3 0.8 0.6 0 1-0.3 1.3-0.8 0.3-0.5 0.4-1.3 0.4-2.2 0-0.9-0.1-1.6-0.4-2.2-0.3-0.5-0.7-0.8-1.3-0.8C29.8 21.2 29.4 21.5 29.1 22z" data-fill-palette-color="accent"></path><path fill="#97978d" d="M34.2 20.3h2.6v7.9h-1.1v-6.8h-1.4V20.3z" data-fill-palette-color="accent"></path><path fill="#97978d" d="M39 27.2c-0.5-0.7-0.7-1.7-0.7-3 0-1.3 0.2-2.2 0.7-3 0.5-0.7 1.2-1.1 2.2-1.1 1 0 1.7 0.4 2.2 1.1 0.5 0.7 0.7 1.7 0.7 3 0 1.3-0.2 2.3-0.7 3-0.5 0.7-1.2 1.1-2.2 1.1C40.2 28.3 39.5 27.9 39 27.2zM39.9 22c-0.3 0.5-0.4 1.3-0.4 2.1 0 0.9 0.1 1.6 0.4 2.1 0.3 0.5 0.7 0.8 1.3 0.8 0.6 0 1-0.3 1.3-0.8 0.3-0.5 0.4-1.3 0.4-2.2 0-0.9-0.1-1.6-0.4-2.2-0.3-0.5-0.7-0.8-1.3-0.8C40.6 21.2 40.2 21.5 39.9 22z" data-fill-palette-color="accent"></path><path fill="#97978d" d="M44.9 20.3h2.6v7.9h-1.1v-6.8h-1.4V20.3z" data-fill-palette-color="accent"></path><path fill="#97978d" d="M28.1 36.8H31v7.9h-1.3V38h-1.6V36.8z" data-fill-palette-color="accent"></path><path fill="#97978d" d="M32.5 36.8h2.9v7.9h-1.3V38h-1.6V36.8z" data-fill-palette-color="accent"></path><path fill="#97978d" d="M37.9 43.7c-0.5-0.7-0.8-1.7-0.8-3 0-1.3 0.3-2.2 0.8-3 0.5-0.7 1.3-1.1 2.4-1.1 1.1 0 1.9 0.4 2.4 1.1 0.5 0.7 0.8 1.7 0.8 3 0 1.3-0.3 2.3-0.8 3-0.5 0.7-1.3 1.1-2.4 1.1C39.3 44.9 38.5 44.5 37.9 43.7zM38.9 38.6c-0.3 0.5-0.5 1.3-0.5 2.1 0 0.9 0.2 1.6 0.5 2.1 0.3 0.5 0.8 0.8 1.5 0.8 0.7 0 1.2-0.3 1.5-0.8 0.3-0.5 0.5-1.3 0.5-2.2 0-0.9-0.2-1.6-0.5-2.2-0.3-0.5-0.8-0.8-1.5-0.8C39.7 37.8 39.2 38 38.9 38.6z" data-fill-palette-color="accent"></path><path fill="#97978d" d="M44.6 36.8h2.9v7.9h-1.3V38h-1.6V36.8z" data-fill-palette-color="accent"></path></g></svg></g></g></svg></g><defs><mask id="7f5592e2-1926-46d5-a107-1a7e129c5b72"><rect width="640" height="400" fill="white"></rect><rect width="348.05760000000004" height="76.63205712835003" fill="black" x="145.97119999999998" y="161.683971435825" id="transform-me" transform="matrix(1,0,0,1,-122.24000000000001,-76.4)"></rect></mask></defs></svg><rect width="395.52" height="247.2" fill="none" stroke="none" visibility="hidden"></rect></g></svg></g></svg>